<mxfile host="app.diagrams.net" agent="Mozilla/5.0 (Windows NT 10.0; Win64; x64) AppleWebKit/537.36 (KHTML, like Gecko) Chrome/128.0.0.0 Safari/537.36 OPR/114.0.0.0" version="24.7.13">
  <diagram name="Página-1" id="tI3yg3SDbBL2fqN9Itgj">
    <mxGraphModel dx="1255" dy="715" grid="1" gridSize="10" guides="1" tooltips="1" connect="1" arrows="1" fold="1" page="1" pageScale="1" pageWidth="827" pageHeight="1169" math="0" shadow="0">
      <root>
        <mxCell id="0" />
        <mxCell id="1" parent="0" />
        <mxCell id="W2e0kZhViUG2DmY4Y82r-10" value="Restaurante" style="shape=umlActor;verticalLabelPosition=bottom;verticalAlign=top;html=1;" vertex="1" parent="1">
          <mxGeometry x="70" y="340" width="40" height="80" as="geometry" />
        </mxCell>
        <mxCell id="W2e0kZhViUG2DmY4Y82r-11" value="Cliente&lt;div&gt;&lt;br&gt;&lt;/div&gt;" style="shape=umlActor;verticalLabelPosition=bottom;verticalAlign=top;html=1;" vertex="1" parent="1">
          <mxGeometry x="70" y="40" width="40" height="80" as="geometry" />
        </mxCell>
        <mxCell id="W2e0kZhViUG2DmY4Y82r-14" value="&lt;div&gt;Adm. Sistema&lt;/div&gt;&lt;div&gt;&lt;br&gt;&lt;/div&gt;" style="shape=umlActor;verticalLabelPosition=bottom;verticalAlign=top;html=1;" vertex="1" parent="1">
          <mxGeometry x="70" y="560" width="40" height="80" as="geometry" />
        </mxCell>
        <mxCell id="W2e0kZhViUG2DmY4Y82r-18" value="&lt;p style=&quot;margin:0px;margin-top:4px;text-align:center;&quot;&gt;&lt;b&gt;Sistema (Delivery Japonês)&lt;/b&gt;&lt;/p&gt;&lt;hr size=&quot;1&quot; style=&quot;border-style:solid;&quot;&gt;&lt;div style=&quot;height:2px;&quot;&gt;&lt;/div&gt;" style="verticalAlign=top;align=left;overflow=fill;html=1;whiteSpace=wrap;" vertex="1" parent="1">
          <mxGeometry x="160" y="30" width="410" height="680" as="geometry" />
        </mxCell>
        <mxCell id="W2e0kZhViUG2DmY4Y82r-19" value="Cadastro Cliente" style="ellipse;whiteSpace=wrap;html=1;" vertex="1" parent="1">
          <mxGeometry x="180" y="70" width="120" height="50" as="geometry" />
        </mxCell>
        <mxCell id="W2e0kZhViUG2DmY4Y82r-22" value="" style="line;strokeWidth=1;fillColor=none;align=left;verticalAlign=middle;spacingTop=-1;spacingLeft=3;spacingRight=3;rotatable=0;labelPosition=right;points=[];portConstraint=eastwest;strokeColor=inherit;" vertex="1" parent="1">
          <mxGeometry x="330" y="270" width="40" as="geometry" />
        </mxCell>
        <mxCell id="W2e0kZhViUG2DmY4Y82r-26" value="" style="endArrow=none;html=1;rounded=0;entryX=0;entryY=0.5;entryDx=0;entryDy=0;" edge="1" parent="1" target="W2e0kZhViUG2DmY4Y82r-19">
          <mxGeometry width="50" height="50" relative="1" as="geometry">
            <mxPoint x="120" y="70" as="sourcePoint" />
            <mxPoint x="170" y="145" as="targetPoint" />
          </mxGeometry>
        </mxCell>
        <mxCell id="W2e0kZhViUG2DmY4Y82r-30" value="Processo de Pedido" style="ellipse;whiteSpace=wrap;html=1;" vertex="1" parent="1">
          <mxGeometry x="180" y="140" width="120" height="50" as="geometry" />
        </mxCell>
        <mxCell id="W2e0kZhViUG2DmY4Y82r-32" value="Pré-avaliação&amp;nbsp;&lt;div&gt;do pedido&lt;/div&gt;" style="ellipse;whiteSpace=wrap;html=1;" vertex="1" parent="1">
          <mxGeometry x="180" y="240" width="120" height="50" as="geometry" />
        </mxCell>
        <mxCell id="W2e0kZhViUG2DmY4Y82r-38" value="" style="endArrow=none;dashed=1;html=1;dashPattern=1 3;strokeWidth=2;rounded=0;exitX=0.5;exitY=0;exitDx=0;exitDy=0;" edge="1" parent="1" source="W2e0kZhViUG2DmY4Y82r-32" target="W2e0kZhViUG2DmY4Y82r-30">
          <mxGeometry width="50" height="50" relative="1" as="geometry">
            <mxPoint x="269" y="240" as="sourcePoint" />
            <mxPoint x="269" y="220" as="targetPoint" />
          </mxGeometry>
        </mxCell>
        <mxCell id="W2e0kZhViUG2DmY4Y82r-52" value="&amp;lt;extend&amp;gt;" style="edgeLabel;html=1;align=center;verticalAlign=middle;resizable=0;points=[];" vertex="1" connectable="0" parent="W2e0kZhViUG2DmY4Y82r-38">
          <mxGeometry x="0.3137" y="4" relative="1" as="geometry">
            <mxPoint as="offset" />
          </mxGeometry>
        </mxCell>
        <mxCell id="W2e0kZhViUG2DmY4Y82r-39" value="Sistema de Notificação&amp;nbsp;" style="ellipse;whiteSpace=wrap;html=1;" vertex="1" parent="1">
          <mxGeometry x="430" y="240" width="120" height="50" as="geometry" />
        </mxCell>
        <mxCell id="W2e0kZhViUG2DmY4Y82r-41" value="" style="endArrow=none;dashed=1;html=1;dashPattern=1 3;strokeWidth=2;rounded=0;entryX=0;entryY=0.5;entryDx=0;entryDy=0;" edge="1" parent="1" source="W2e0kZhViUG2DmY4Y82r-32" target="W2e0kZhViUG2DmY4Y82r-39">
          <mxGeometry width="50" height="50" relative="1" as="geometry">
            <mxPoint x="340" y="295" as="sourcePoint" />
            <mxPoint x="390" y="245" as="targetPoint" />
          </mxGeometry>
        </mxCell>
        <mxCell id="W2e0kZhViUG2DmY4Y82r-50" value="&amp;lt;include&amp;gt;" style="edgeLabel;html=1;align=center;verticalAlign=middle;resizable=0;points=[];" vertex="1" connectable="0" parent="W2e0kZhViUG2DmY4Y82r-41">
          <mxGeometry x="-0.2418" y="3" relative="1" as="geometry">
            <mxPoint as="offset" />
          </mxGeometry>
        </mxCell>
        <mxCell id="W2e0kZhViUG2DmY4Y82r-43" value="Visualização de&amp;nbsp;&lt;div&gt;Cardápio&amp;nbsp;&lt;/div&gt;" style="ellipse;whiteSpace=wrap;html=1;" vertex="1" parent="1">
          <mxGeometry x="180" y="345" width="120" height="50" as="geometry" />
        </mxCell>
        <mxCell id="W2e0kZhViUG2DmY4Y82r-44" value="" style="endArrow=none;html=1;rounded=0;entryX=0.019;entryY=0.696;entryDx=0;entryDy=0;entryPerimeter=0;" edge="1" parent="1" target="W2e0kZhViUG2DmY4Y82r-43">
          <mxGeometry width="50" height="50" relative="1" as="geometry">
            <mxPoint x="120" y="375" as="sourcePoint" />
            <mxPoint x="201" y="368" as="targetPoint" />
          </mxGeometry>
        </mxCell>
        <mxCell id="W2e0kZhViUG2DmY4Y82r-45" value="Cadastro de Prato&amp;nbsp;" style="ellipse;whiteSpace=wrap;html=1;" vertex="1" parent="1">
          <mxGeometry x="180" y="430" width="120" height="50" as="geometry" />
        </mxCell>
        <mxCell id="W2e0kZhViUG2DmY4Y82r-46" value="" style="endArrow=none;html=1;rounded=0;" edge="1" parent="1" target="W2e0kZhViUG2DmY4Y82r-45">
          <mxGeometry width="50" height="50" relative="1" as="geometry">
            <mxPoint x="120" y="400" as="sourcePoint" />
            <mxPoint x="200" y="460" as="targetPoint" />
          </mxGeometry>
        </mxCell>
        <mxCell id="W2e0kZhViUG2DmY4Y82r-47" value="Geração de Relatórios" style="ellipse;whiteSpace=wrap;html=1;" vertex="1" parent="1">
          <mxGeometry x="180" y="560" width="120" height="50" as="geometry" />
        </mxCell>
        <mxCell id="W2e0kZhViUG2DmY4Y82r-48" value="" style="endArrow=none;html=1;rounded=0;entryX=0;entryY=0.5;entryDx=0;entryDy=0;" edge="1" parent="1" target="W2e0kZhViUG2DmY4Y82r-47">
          <mxGeometry width="50" height="50" relative="1" as="geometry">
            <mxPoint x="120" y="590" as="sourcePoint" />
            <mxPoint x="180" y="580" as="targetPoint" />
          </mxGeometry>
        </mxCell>
        <mxCell id="W2e0kZhViUG2DmY4Y82r-49" value="" style="endArrow=none;html=1;rounded=0;entryX=0;entryY=0;entryDx=0;entryDy=0;" edge="1" parent="1" target="W2e0kZhViUG2DmY4Y82r-30">
          <mxGeometry width="50" height="50" relative="1" as="geometry">
            <mxPoint x="120" y="100" as="sourcePoint" />
            <mxPoint x="170" y="120" as="targetPoint" />
          </mxGeometry>
        </mxCell>
      </root>
    </mxGraphModel>
  </diagram>
</mxfile>
